<?xml version="1.0" encoding="utf-8"?>
<!-- Generator: Adobe Illustrator 28.2.0, SVG Export Plug-In . SVG Version: 6.00 Build 0)  -->
<svg version="1.2" baseProfile="tiny" id="g-actualMapsFinalSG-Artboard_1-interactions-img" xmlns="http://www.w3.org/2000/svg" xmlns:xlink="http://www.w3.org/1999/xlink"
	 x="0px" y="0px" viewBox="0 0 1200 1232" overflow="visible" xml:space="preserve">
<g>
	<rect y="92" fill="#282828" width="1200" height="1232"/>
	<path id="beinecke_00000147922712433058979880000014554697327148118207_" fill="#B6FF9A" fill-opacity="1" d="M878.64,610.958
		l17.673,9.66l1.122,5.793l-7.414,12.275l-20.007-10.658L878.64,610.958z"/>
	
		
	
		<ellipse id="yaleIntersection_00000102507754017398375040000012835745196870302345_" transform="matrix(0.866 -0.5 0.5 0.866 -177.0282 550.2927)" fill="#006802" cx="938.346" cy="605.485" rx="12.5" ry="16.342"/>
	
		<rect id="occupyYale_00000131359220299004690330000011116138139559571089_" x="807.232" y="665.816" transform="matrix(0.8955 0.4451 -0.4451 0.8955 388.8855 -294.3272)" fill="#006802" width="27.728" height="29.995"/>
	
	
	<path fill-rule="evenodd" fill="#006802" stroke="#006802" stroke-miterlimit="10" d="M849.889,735.745l-8.963-5.704L746,621.671
		l23.222-27.704l28.111-38.296l17.111-30.556L966,610.263l-38.704,25.259l-45.222,48.482l-18.333,28.926L849.889,735.745z"/>
	<path fill="#006802" stroke="#006802" stroke-miterlimit="10" d="M804.259,591.93l64.181,0.17"/>
</g>
<style>
#g-actualMapsFinalSG-Artboard_1-interactions-img rect, #g-actualMapsFinalSG-Artboard_1-interactions-img circle, #g-actualMapsFinalSG-Artboard_1-interactions-img path, #g-actualMapsFinalSG-Artboard_1-interactions-img line, #g-actualMapsFinalSG-Artboard_1-interactions-img polyline, #g-actualMapsFinalSG-Artboard_1-interactions-img polygon { vector-effect: non-scaling-stroke; }
</style>
</svg>

